<svg width="34" height="56" viewBox="0 0 34 56" fill="none" xmlns="http://www.w3.org/2000/svg">
<path d="M19.1143 31.1064L20.9561 31.2412C23.5915 31.2412 25.8301 30.3203 27.6719 28.4785C29.5137 26.6367 30.4346 24.3457 30.4346 21.6055C30.4346 18.0117 28.8548 15.3464 25.6953 13.6094C23.9583 12.651 22.1016 12.097 20.125 11.9473C19.2865 11.8724 18.5078 11.835 17.7891 11.835H16.2617C15.9473 11.835 15.6702 11.8424 15.4307 11.8574V42H3.97559V10.2178C7.47949 10.2178 10.3171 10.2178 12.4883 10.2178C14.6595 10.2178 16.0745 10.2253 16.7334 10.2402C17.3923 10.2552 17.9762 10.2777 18.4854 10.3076C19.0094 10.3226 19.4961 10.3451 19.9453 10.375C20.6042 10.4349 21.5326 10.5771 22.7305 10.8018C23.9434 11.0264 25.1413 11.4531 26.3242 12.082C27.5072 12.7109 28.5254 13.4896 29.3789 14.418C31.2207 16.3945 32.1416 18.7454 32.1416 21.4707C32.1416 24.166 31.2881 26.5469 29.5811 28.6133C27.8291 30.7246 25.4932 32.0872 22.5732 32.7012C23.9658 37.0137 25.7402 39.5892 27.8965 40.4277C28.5553 40.6823 29.2142 40.8096 29.873 40.8096L31.6475 40.3828C32.2015 40.3828 32.4785 40.6673 32.4785 41.2363C32.4785 42.0299 31.5501 42.4268 29.6934 42.4268C28.3457 42.4268 27.1104 42.0524 25.9873 41.3037C24.2354 40.2555 22.7454 38.2191 21.5176 35.1943L20.8662 33.5996C20.7614 33.3451 20.6641 33.1878 20.5742 33.1279C20.4993 33.068 20.3571 33.0381 20.1475 33.0381C19.9528 33.0381 19.7806 33.0531 19.6309 33.083L19.0918 33.1055C18.4928 33.1055 18.0811 32.9932 17.8564 32.7686C17.6468 32.5439 17.542 32.3118 17.542 32.0723C17.542 31.4284 18.0661 31.1064 19.1143 31.1064Z" fill="#FFD28B"/>
</svg>
